<svg width="96" height="96" viewBox="0 0 96 96" fill="none" xmlns="http://www.w3.org/2000/svg">
  <rect width="96" height="96" rx="28" fill="url(#paint0_linear_1_2)"/>
  <path d="M29 24H67V34C67 44.4934 58.4934 53 48 53C37.5066 53 29 44.4934 29 34V24Z" fill="#FFF7ED"/>
  <path d="M35 36H61V42C61 49.732 54.732 56 47 56H49C41.268 56 35 49.732 35 42V36Z" fill="#F59E0B" fill-opacity="0.82"/>
  <path d="M40 55H56L60 73C60.6033 75.7148 58.5382 78.25 55.7572 78.25H40.2428C37.4618 78.25 35.3967 75.7148 36 73L40 55Z" fill="#FEF3C7"/>
  <circle cx="63.5" cy="28.5" r="9.5" fill="#FDBA74"/>
  <path d="M63.5 22V35" stroke="#7C2D12" stroke-width="3.5" stroke-linecap="round"/>
  <path d="M57 28.5H70" stroke="#7C2D12" stroke-width="3.5" stroke-linecap="round"/>
  <defs>
    <linearGradient id="paint0_linear_1_2" x1="13" y1="10" x2="83" y2="86" gradientUnits="userSpaceOnUse">
      <stop stop-color="#111827"/>
      <stop offset="1" stop-color="#9A3412"/>
    </linearGradient>
  </defs>
</svg>
